# xmcd CD database file
#
# Track frame offsets:
#	150
#	15188
#	35172
#	50895
#	66774
#	82762
#	95613
#	108279
#	128205
#	142694
#	155300
#	168631
#	182282
#
# Disc length: 2648 seconds
#
# Revision: 2
# Processed by: cddbd v1.5.2PL0 Copyright (c) Steve Scherf et al.
# Submitted via: CDex 1.51
#
DISCID=9c0a560d
DTITLE=Various Artist - CitySky05
DYEAR=1995
DGENRE=Country
TTITLE0=DICK AND JANE 狄克和珍
TTITLE1=DON'T CRY JONI 強尼別哭
TTITLE2=INSIDE OF MY GUITAR 吉他伴我
TTITLE3=SEASON IN THE SUN 陽光季節
TTITLE4=I'D LOVE YOU TO WAIT ME 只願你愛我
TTITLE5=SEALED WITH A KISS 以吻封緘
TTITLE6=SUMMER KISSES WINTER TEARS 多少柔情多少淚
TTITLE7=THE HOUSE OF RISING SUN 日昇之屋
TTITLE8=IT NEVER RAINS IN SOUTHERN CALIFORNIA 南加州從不下雨
TTITLE9=YOUR CHEATING HEART 你那顆欺瞞的心
TTITLE10=CALIFORNIA DREAM 加州夢
TTITLE11=WHISPERING PINES 松林低語
TTITLE12=JAMBALAYA 大雜燴
EXTD=YEAR: 1995
EXTT0=
EXTT1=
EXTT2=
EXTT3=
EXTT4=
EXTT5=
EXTT6=
EXTT7=
EXTT8=
EXTT9=
EXTT10=
EXTT11=
EXTT12=
PLAYORDER=
